<svg width="126" height="126" fill="none" xmlns="http://www.w3.org/2000/svg"><rect width="126" height="126" rx="63" fill="#599C50"/><path fill-rule="evenodd" clip-rule="evenodd" d="M49.65 37.286c-.674-1.572-1.27-4.305-1.326-6.072C48.236 28.35 48.91 28 54.557 28c3.484 0 6.644.503 7.023 1.119C62.707 30.946 60.769 48 59.434 48c-.675 0-1.228-2.893-1.228-6.429 0-5.904-.29-6.428-3.565-6.428-2.407 0-3.598.813-3.665 2.5-.085 2.137-.278 2.086-1.326-.357zm2.496-5.42c1.764.34 4.653.34 6.417 0 1.764-.342.32-.62-3.209-.62-3.53 0-4.972.278-3.208.62zM14 60.143c0-.754 5.601-7.01 12.448-13.9 6.846-6.892 13.116-12.529 13.933-12.529 1.9 0 27.184 25.386 26.233 26.339-.392.393-6.443-5.052-13.445-12.099L40.44 35.14 27.22 48.327C19.948 55.58 14 60.897 14 60.143zm0 5.917c0-.28 5.93-6.357 13.18-13.503l13.181-12.993 13.01 12.432c12.715 12.15 15.573 15.72 11.252 14.058-1.313-.504-2.139.003-2.139 1.312 0 1.173 1.604 2.744 3.565 3.491 1.96.747 3.585 2.177 3.608 3.179.026 1.06.652.775 1.497-.679 1.821-3.131 5.396-3.24 6.56-.201.81 2.114.985 2.114 2.166 0 1.653-2.96 5.256-2.96 6.39 0 .81 2.114.985 2.114 2.166 0 1.653-2.96 5.256-2.96 6.39 0 .81 2.114.985 2.114 2.166 0 1.626-2.912 5.25-2.976 6.347-.115.732 1.912 1.058 1.882 2.601-.231 1.051-1.44 2.712-2.053 4.108-1.516 1.819.699 2.346 2.84 2.346 9.519 0 8.237-.157 8.616-3.565 8.616-1.961 0-3.616-.803-3.677-1.786-.09-1.429-.257-1.429-.832 0-.396.983-2.27 1.786-4.165 1.786s-3.498-.803-3.56-1.786c-.09-1.429-.256-1.429-.83 0-.938 2.326-7.579 2.326-7.725 0-.09-1.429-.257-1.429-.832 0-.396.983-2.27 1.786-4.165 1.786s-3.498-.803-3.56-1.786c-.09-1.429-.256-1.429-.83 0-.938 2.327-7.606 2.327-7.634 0-.017-1.379-.29-1.364-1.194.064-.767 1.21-3.1 1.616-6.752 1.173-3.069-.371-6.06-.723-6.65-.779-.588-.055-1.069-1.387-1.069-2.958 0-2.676-.951-2.857-14.973-2.857-13.74 0-14.973.223-14.973 2.704 0 3.189-2.992 4.69-5.834 2.929-1.43-.889-2.009-4.243-2.009-11.655 0-7.564-.488-10.31-1.783-10.05-.98.196-1.782.127-1.782-.154zm26.555-19.489c3.163 0 3.467-.331 1.965-2.142-1.932-2.332-3.277-2.669-4.753-1.19-1.966 1.97-.827 3.332 2.788 3.332zm-.887 5.715c9.022 0 10.106-.272 8.556-2.143C47.102 48.789 43.956 48 39.668 48c-4.288 0-7.434.789-8.556 2.143-1.55 1.871-.466 2.143 8.556 2.143zm.811 7.143c16.372 0 17.984-.219 15.504-2.098-3.986-3.021-29.507-3.057-32.001-.045-1.563 1.885.416 2.143 16.497 2.143zm12.38 7.308c1.49-.098 2.495-1.317 2.495-3.023 0-2.675-.951-2.857-14.973-2.857-13.832 0-14.973.21-14.973 2.753 0 1.513 1.124 3.046 2.495 3.406 2.378.621 2.378.661 0 .818-1.455.097-2.495 1.313-2.495 2.919 0 1.513 1.124 3.046 2.495 3.406 2.378.621 2.378.661 0 .818-1.49.099-2.495 1.317-2.495 3.023 0 2.676.951 2.857 14.973 2.857 13.832 0 14.973-.21 14.973-2.753 0-1.513-1.124-3.045-2.495-3.405-2.378-.622-2.378-.662 0-.819 1.456-.097 2.495-1.313 2.495-2.919 0-1.512-1.124-3.045-2.495-3.405-2.378-.622-2.378-.662 0-.819zm-33.155-2.19c0 2.523 3.07 2.084 3.951-.564.311-.934-.452-1.697-1.694-1.697a2.265 2.265 0 00-2.257 2.261zM32.538 79.43V62.286h15.686v17.143H32.538zm26.827-13.185c.932.312 1.693-.453 1.693-1.697a2.265 2.265 0 00-2.257-2.261c-2.519 0-2.08 3.075.564 3.958zM36.816 69.43c1.584 0 2.852-.953 2.852-2.143s-1.268-2.143-2.852-2.143c-1.584 0-2.852.953-2.852 2.143s1.268 2.143 2.852 2.143zm7.13 0c1.584 0 2.852-.953 2.852-2.143s-1.268-2.143-2.852-2.143c-1.584 0-2.852.953-2.852 2.143s1.268 2.143 2.852 2.143zm-22.46 3.928c.982-.327 1.783-1.453 1.783-2.5s-.801-2.173-1.782-2.5c-1.061-.354-1.783.659-1.783 2.5 0 1.842.722 2.854 1.782 2.5zm38.23.357c.739 0 1.342-1.285 1.342-2.857 0-3.013-2.075-3.844-3.565-1.428-1.04 1.685.31 4.285 2.223 4.285zm-22.9 2.857c1.584 0 2.852-.952 2.852-2.142s-1.268-2.143-2.852-2.143c-1.584 0-2.852.953-2.852 2.143s1.268 2.142 2.852 2.142zm7.13 0c1.584 0 2.852-.952 2.852-2.142s-1.268-2.143-2.852-2.143c-1.584 0-2.852.953-2.852 2.143s1.268 2.142 2.852 2.142zM66.123 88c1.771 0 2.128-1.477 1.783-7.387-.618-10.582-3.996-11.08-3.996-.589 0 6.257.478 7.976 2.213 7.976zm8.556 0c1.771 0 2.128-1.477 1.783-7.387-.618-10.582-3.996-11.08-3.996-.589 0 6.257.478 7.976 2.213 7.976zm8.556 0c1.771 0 2.128-1.477 1.783-7.387-.618-10.582-3.996-11.08-3.996-.589 0 6.257.478 7.976 2.213 7.976zm8.482 0c1.613 0 2.14-1.737 2.14-7.059 0-6.671-1.333-9.702-3.368-7.664-.5.503-.91 4.02-.91 7.819 0 5.184.533 6.904 2.138 6.904zm8.556 0c1.613 0 2.139-1.737 2.139-7.059 0-6.671-1.332-9.702-3.367-7.664-.5.503-.91 4.02-.91 7.819 0 5.184.532 6.904 2.138 6.904zm8.556 0c1.643 0 2.139-1.826 2.139-7.857 0-7.279-.961-9.274-3.327-6.904-.523.522-.951 4.058-.951 7.857 0 5.184.533 6.904 2.139 6.904zM19.924 77.197c.554 2.677 3.345 3.149 3.345.564 0-.915-.863-1.954-1.92-2.307-1.199-.4-1.732.253-1.425 1.743zm39.806 2.884c.73-.451 1.328-1.747 1.328-2.88 0-2.357-2.253-2.755-3.565-.63-1.163 1.886.542 4.56 2.237 3.51zm-37.887 6.49a2.147 2.147 0 002.139-2.142 2.147 2.147 0 00-2.139-2.143 2.147 2.147 0 00-2.139 2.143c0 1.178.963 2.142 2.139 2.142zm37.076 0a2.147 2.147 0 002.14-2.142 2.147 2.147 0 00-2.14-2.143 2.147 2.147 0 00-2.139 2.143c0 1.178.963 2.142 2.14 2.142zM40.465 89.43c-6.62 0-12.433-.643-12.918-1.429-.563-.913 3.787-1.429 12.037-1.429 7.662 0 12.918.582 12.918 1.429 0 .84-4.962 1.429-12.037 1.429z" fill="#fff"/></svg>