<svg width="99" height="62" fill="none" xmlns="http://www.w3.org/2000/svg"><path fill-rule="evenodd" clip-rule="evenodd" d="M34.728 6.202c-.226-1.061-.378-2.137-.405-2.988C34.235.349 34.91 0 40.557 0 44.04 0 47.2.503 47.58 1.118 48.706 2.945 46.77 20 45.434 20c-.675 0-1.228-2.893-1.228-6.429 0-5.904-.291-6.428-3.565-6.428-2.408 0-3.598.813-3.665 2.5-.085 2.137-.278 2.085-1.327-.357-.35-.814-.677-1.941-.92-3.084zm3.417-2.337c1.764.341 4.654.341 6.417 0 1.764-.34.32-.619-3.209-.619s-4.971.278-3.208.62zM0 32.143c0-.754 5.602-7.01 12.447-13.9 6.847-6.891 13.117-12.53 13.934-12.53 1.9 0 27.184 25.387 26.232 26.34-.391.392-6.442-5.052-13.444-12.099L26.438 7.14l-13.22 13.187C5.949 27.58 0 32.897 0 32.143zm0 5.917c0-.28 5.93-6.357 13.18-13.502l13.181-12.993 13.011 12.431c12.714 12.15 15.571 15.72 11.251 14.059-1.313-.505-2.14.003-2.14 1.31 0 1.173 1.605 2.745 3.566 3.492 1.96.748 3.585 2.177 3.607 3.18.027 1.059.653.775 1.498-.68 1.82-3.131 5.396-3.24 6.56-.202.81 2.114.985 2.114 2.166 0 1.652-2.96 5.256-2.96 6.39 0 .81 2.114.985 2.114 2.166 0 1.653-2.96 5.256-2.96 6.39 0 .81 2.114.985 2.114 2.165 0 1.626-2.91 5.251-2.975 6.348-.114.731 1.912 1.058 1.882 2.6-.231 1.052-1.44 2.713-2.053 4.109-1.516 1.818.7 2.346 2.84 2.346 9.519 0 8.237-.157 8.616-3.565 8.616-1.96 0-3.616-.803-3.678-1.786-.09-1.43-.257-1.43-.83 0-.397.983-2.271 1.786-4.167 1.786-1.894 0-3.498-.803-3.558-1.786-.09-1.43-.257-1.43-.832 0-.937 2.326-7.578 2.326-7.725 0-.09-1.43-.257-1.43-.831 0-.397.983-2.27 1.786-4.165 1.786-1.896 0-3.498-.803-3.56-1.786-.09-1.43-.256-1.43-.83 0-.938 2.327-7.606 2.327-7.634 0-.018-1.378-.29-1.365-1.194.064-.767 1.21-3.1 1.616-6.752 1.173-3.07-.371-6.06-.723-6.65-.778-.589-.056-1.07-1.388-1.07-2.96 0-2.675-.95-2.856-14.972-2.856-13.741 0-14.973.223-14.973 2.704 0 3.189-2.992 4.69-5.834 2.929-1.43-.889-2.01-4.243-2.01-11.654 0-7.565-.487-10.31-1.782-10.051C.802 38.41 0 38.342 0 38.06zm26.555-19.49c3.163 0 3.466-.33 1.965-2.142-1.932-2.332-3.277-2.67-4.753-1.19-1.966 1.97-.828 3.332 2.788 3.332zm-.887 5.715c9.022 0 10.105-.271 8.556-2.143C33.102 20.788 29.956 20 25.668 20c-4.288 0-7.434.788-8.557 2.143-1.55 1.872-.466 2.143 8.557 2.143zm.812 7.143c16.372 0 17.983-.219 15.502-2.098-3.985-3.021-29.506-3.057-32-.045-1.563 1.886.416 2.143 16.498 2.143zm12.378 7.308c1.49-.098 2.495-1.317 2.495-3.023 0-2.676-.95-2.857-14.972-2.857-13.832 0-14.973.21-14.973 2.753 0 1.513 1.123 3.045 2.495 3.406 2.377.62 2.377.66 0 .818a2.552 2.552 0 00-1.847.959c-.41.51-.648 1.19-.648 1.96 0 1.513 1.123 3.046 2.495 3.405 2.377.622 2.377.662 0 .82-1.49.098-2.495 1.316-2.495 3.022 0 2.676.951 2.857 14.973 2.857 13.832 0 14.972-.21 14.972-2.752 0-1.513-1.123-3.046-2.495-3.407-.941-.246-1.51-.4-1.705-.508-.298-.163.27-.215 1.705-.31 1.457-.097 2.495-1.313 2.495-2.918 0-1.514-1.123-3.046-2.495-3.406-.897-.235-1.456-.386-1.675-.492-.363-.176.196-.229 1.675-.327zm-33.154-2.19c0 2.523 3.07 2.085 3.951-.565.31-.933-.452-1.696-1.694-1.696a2.264 2.264 0 00-2.257 2.26zm12.834 14.882V34.287h15.686v17.142H18.538zm26.827-13.185c.93.312 1.693-.453 1.693-1.697a2.264 2.264 0 00-2.257-2.26c-2.519 0-2.081 3.074.564 3.957zm-22.55 3.185c1.585 0 2.853-.953 2.853-2.143s-1.268-2.143-2.853-2.143c-1.584 0-2.851.953-2.851 2.143s1.267 2.143 2.851 2.143zm7.131 0c1.584 0 2.852-.953 2.852-2.143s-1.268-2.143-2.852-2.143c-1.585 0-2.852.953-2.852 2.143s1.267 2.143 2.852 2.143zm-22.46 3.928c.982-.327 1.783-1.453 1.783-2.5s-.801-2.172-1.783-2.5c-1.06-.354-1.782.659-1.782 2.5s.722 2.855 1.782 2.5zm38.23.357c.74 0 1.342-1.285 1.342-2.857 0-3.012-2.075-3.844-3.565-1.428-1.04 1.685.31 4.285 2.223 4.285zm-22.9 2.857c1.584 0 2.852-.953 2.852-2.142 0-1.19-1.268-2.143-2.853-2.143-1.584 0-2.851.952-2.851 2.143 0 1.19 1.267 2.142 2.851 2.142zm7.13 0c1.584 0 2.852-.953 2.852-2.142 0-1.19-1.268-2.143-2.852-2.143-1.585 0-2.852.952-2.852 2.143 0 1.19 1.267 2.142 2.852 2.142zM52.123 60c1.772 0 2.128-1.477 1.782-7.387-.617-10.582-3.995-11.08-3.995-.589 0 6.257.478 7.976 2.213 7.976zm8.556 0c1.771 0 2.128-1.477 1.783-7.387-.618-10.582-3.996-11.08-3.996-.589 0 6.257.477 7.976 2.213 7.976zm8.556 0c1.77 0 2.127-1.477 1.783-7.387-.618-10.582-3.996-11.08-3.996-.589 0 6.257.478 7.976 2.213 7.976zm8.482 0c1.613 0 2.139-1.737 2.139-7.059 0-6.672-1.332-9.703-3.367-7.664-.5.503-.91 4.02-.91 7.819 0 5.184.532 6.904 2.138 6.904zm8.555 0c1.614 0 2.14-1.737 2.14-7.059 0-6.672-1.332-9.703-3.367-7.664-.259.261-.494 1.33-.66 2.83-.156 1.394-.251 3.159-.251 4.989 0 5.184.533 6.904 2.138 6.904zm8.557 0c1.643 0 2.139-1.826 2.139-7.857 0-7.279-.961-9.275-3.327-6.905-.523.524-.95 4.059-.95 7.858 0 5.184.533 6.904 2.138 6.904zM5.924 49.197c.555 2.677 3.345 3.149 3.345.565 0-.916-.863-1.954-1.92-2.308-1.199-.4-1.732.253-1.425 1.743zm40.958 1.133c.112-.37.176-.758.176-1.129 0-2.356-2.253-2.756-3.565-.63-1.164 1.886.542 4.56 2.237 3.51.492-.304.922-.99 1.152-1.75zm-39.04 8.241a2.146 2.146 0 002.14-2.142 2.146 2.146 0 00-2.14-2.143 2.146 2.146 0 00-2.138 2.143c0 1.178.962 2.142 2.139 2.142zm37.077 0a2.146 2.146 0 002.139-2.142 2.146 2.146 0 00-2.14-2.143 2.146 2.146 0 00-2.138 2.143c0 1.178.962 2.142 2.139 2.142zM26.465 61.43c-6.621 0-12.434-.643-12.918-1.429-.564-.913 3.787-1.429 12.037-1.429 7.662 0 12.918.582 12.918 1.429 0 .84-4.963 1.429-12.037 1.429z" fill="#000"/></svg>