<svg width="124" height="124" fill="none" xmlns="http://www.w3.org/2000/svg"><rect width="124" height="124" rx="62" fill="#fff"/><path d="M19.12 80.14h.624c.265 0 .532-.02.805-.06.271-.04.52-.112.744-.216.224-.112.408-.26.552-.444.143-.184.216-.416.216-.696 0-.36-.157-.652-.468-.876-.305-.232-.712-.348-1.224-.348-.44 0-.837.052-1.189.156-.352.096-.611.196-.78.3l-.371-.948c.096-.064.224-.124.384-.18a4.506 4.506 0 011.224-.276c.24-.032.488-.048.744-.048.416 0 .8.044 1.151.132.352.088.657.224.913.408.256.176.456.404.6.684.143.272.215.596.215.972 0 .384-.123.744-.372 1.08-.24.336-.596.58-1.068.732.24.064.468.156.684.276.224.112.416.26.576.444a2.099 2.099 0 01.552 1.464c0 .44-.084.82-.252 1.14-.16.312-.387.568-.683.768-.288.2-.64.344-1.056.432a6.143 6.143 0 01-1.38.144 4.96 4.96 0 01-.864-.072 6.985 6.985 0 01-.732-.144 4.5 4.5 0 01-.564-.204 5.728 5.728 0 01-.372-.18l.348-.96c.087.048.203.104.347.168a5.214 5.214 0 001.117.324c.224.04.46.06.707.06.68 0 1.208-.112 1.584-.336.384-.232.576-.62.576-1.164 0-.32-.068-.58-.204-.78a1.342 1.342 0 00-.54-.492c-.224-.12-.492-.2-.804-.24a6.403 6.403 0 00-.995-.072h-.744v-.948zm7.9 4.056c.264 0 .496-.004.696-.012.208-.016.38-.04.516-.072v-1.86a1.345 1.345 0 00-.396-.096 3.698 3.698 0 00-.648-.048c-.168 0-.348.012-.54.036a1.611 1.611 0 00-.516.156c-.152.072-.28.176-.384.312-.104.128-.156.3-.156.516 0 .4.128.68.384.84.256.152.604.228 1.044.228zm-.096-5.592c.448 0 .824.06 1.128.18.312.112.56.276.744.492.192.208.328.46.408.756.08.288.12.608.12.96v3.9l-.408.072a14.805 14.805 0 01-1.284.132 7.72 7.72 0 01-.744.036 4.11 4.11 0 01-.972-.108 2.24 2.24 0 01-.768-.336 1.614 1.614 0 01-.504-.624c-.12-.256-.18-.564-.18-.924 0-.344.068-.64.204-.888.144-.248.336-.448.576-.6.24-.152.52-.264.84-.336a4.58 4.58 0 011.008-.108c.112 0 .228.008.348.024.12.008.232.024.336.048a5.367 5.367 0 01.456.084v-.312c0-.184-.02-.364-.06-.54a1.197 1.197 0 00-.216-.48 1.02 1.02 0 00-.432-.336c-.176-.088-.408-.132-.696-.132-.368 0-.692.028-.972.084-.272.048-.476.1-.612.156l-.132-.924c.144-.064.384-.124.72-.18a5.84 5.84 0 011.092-.096zm4.961.876c.248-.2.536-.352.864-.456.336-.112.656-.168.96-.168.896 0 1.572.276 2.028.828.464.544.696 1.304.696 2.28 0 .416-.056.816-.168 1.2a2.881 2.881 0 01-.528 1.02 2.508 2.508 0 01-.888.708c-.36.176-.788.264-1.284.264-.568 0-1.04-.104-1.416-.312a2.423 2.423 0 01-.9-.852 3.738 3.738 0 01-.456-1.26 8.445 8.445 0 01-.132-1.524c0-.696.048-1.344.144-1.944.104-.6.288-1.128.552-1.584a3.27 3.27 0 011.092-1.128c.472-.304 1.076-.508 1.812-.612.216-.032.404-.056.564-.072l.432-.06c.128-.016.244-.032.348-.048l.324-.072.12 1.008a1.194 1.194 0 01-.18.036 2380228085402.895 2380228085402.895 0 00-.684.096 29.48 29.48 0 01-.696.084c-.792.088-1.4.328-1.824.72-.424.392-.684 1.008-.78 1.848zm-.072 1.908c0 .376.024.732.072 1.068.056.336.148.632.276.888.136.256.316.46.54.612.224.144.512.216.864.216.304 0 .564-.056.78-.168.216-.12.392-.28.528-.48.136-.2.236-.432.3-.696.064-.272.096-.56.096-.864 0-.272-.028-.536-.084-.792a1.787 1.787 0 00-.276-.684c-.136-.2-.32-.36-.552-.48-.224-.12-.508-.18-.852-.18-.336 0-.66.072-.972.216-.304.144-.54.32-.708.528a4.384 4.384 0 00-.012.372v.444zm11.409.492c0 .496-.072.944-.216 1.344-.144.4-.348.744-.612 1.032a2.673 2.673 0 01-.924.672c-.36.152-.752.228-1.176.228-.424 0-.816-.076-1.176-.228a2.797 2.797 0 01-.936-.672 3.129 3.129 0 01-.6-1.032 3.947 3.947 0 01-.216-1.344c0-.488.072-.932.216-1.332.144-.408.344-.756.6-1.044.264-.288.576-.508.936-.66.36-.16.752-.24 1.176-.24.424 0 .816.08 1.176.24.36.152.668.372.924.66.264.288.468.636.612 1.044.144.4.216.844.216 1.332zm-1.164 0c0-.704-.16-1.26-.48-1.668-.312-.416-.74-.624-1.284-.624s-.976.208-1.296.624c-.312.408-.468.964-.468 1.668s.156 1.264.468 1.68c.32.408.752.612 1.296.612s.972-.204 1.284-.612c.32-.416.48-.976.48-1.68zm6.766.012c0-.728-.18-1.288-.54-1.68-.36-.392-.84-.588-1.44-.588-.336 0-.6.012-.792.036a3.166 3.166 0 00-.444.084v3.936c.136.112.332.22.588.324.256.104.536.156.84.156.32 0 .592-.056.816-.168.232-.12.42-.28.564-.48.144-.208.248-.448.312-.72.064-.28.096-.58.096-.9zm1.164 0c0 .472-.064.908-.192 1.308-.12.4-.3.744-.54 1.032-.24.288-.536.512-.888.672-.344.16-.74.24-1.188.24-.36 0-.68-.048-.96-.144a3.037 3.037 0 01-.612-.276v2.496h-1.116v-8.268c.264-.064.592-.132.984-.204.4-.08.86-.12 1.38-.12.48 0 .912.076 1.296.228.384.152.712.368.984.648s.48.624.624 1.032c.152.4.228.852.228 1.356zm3.562.024c-.216 0-.428.008-.636.024-.2.008-.38.032-.54.072v2.148c.048.008.116.016.204.024l.3.024c.112 0 .224.004.336.012h.3c.488 0 .864-.092 1.128-.276.264-.184.396-.48.396-.888a.97.97 0 00-.132-.516.934.934 0 00-.336-.348 1.303 1.303 0 00-.468-.204 2.089 2.089 0 00-.552-.072zm-2.292-3.156h1.116v2.388c.136-.032.332-.064.588-.096a6.29 6.29 0 01.756-.048c.328 0 .64.04.936.12.296.072.556.192.78.36.224.16.4.372.528.636.136.256.204.564.204.924 0 .376-.064.696-.192.96s-.308.48-.54.648a2.229 2.229 0 01-.84.36c-.328.08-.688.12-1.08.12-.376 0-.756-.024-1.14-.072a8.329 8.329 0 01-1.116-.192V78.76zM58.434 85h-1.116v-6.24h1.116V85zm1.954 0v2.22h-1.104v-3.216h.876c.408-.464.72-.976.936-1.536a8.295 8.295 0 00.48-1.788c.104-.632.164-1.284.18-1.956.024-.672.04-1.352.048-2.04h4.704v7.32h1.044v3.216h-1.104V85h-6.06zm2.556-7.32a130 130 0 01-.084 1.62 12.57 12.57 0 01-.18 1.632 9.973 9.973 0 01-.396 1.584 6.167 6.167 0 01-.744 1.488h3.804V77.68h-2.4zm7.922 2.016c0 .264-.008.548-.024.852a11.321 11.321 0 01-.192 1.788c-.056.288-.128.56-.216.816a3.7 3.7 0 01-.336.72 2.476 2.476 0 01-.48.6 2.85 2.85 0 01-.672.432 2.914 2.914 0 01-.9.216l-.156-.936c.392-.08.7-.228.924-.444.232-.216.416-.48.552-.792.12-.272.208-.58.264-.924.056-.344.096-.7.12-1.068.024-.376.036-.752.036-1.128.008-.376.012-.732.012-1.068h4.152V85h-1.116v-5.304h-1.968zm7.28 2.88h-.349l-.323-.024a16.29 16.29 0 00-.745 1.236c-.231.432-.44.836-.623 1.212h-1.128c.096-.232.208-.468.336-.708.128-.248.256-.488.384-.72a15.899 15.899 0 01.792-1.224 1.98 1.98 0 01-.552-.288 1.61 1.61 0 01-.54-.852 2.688 2.688 0 01-.048-.504c0-.352.064-.66.192-.924a1.8 1.8 0 01.552-.648c.232-.176.504-.308.816-.396.32-.088.668-.132 1.044-.132.528 0 .976.024 1.344.072.367.048.675.104.924.168V85h-1.104v-2.424h-.972zm.972-2.988a4.95 4.95 0 00-.444-.048 8.847 8.847 0 00-.697-.024c-.456 0-.824.096-1.103.288-.28.184-.42.48-.42.888 0 .4.144.676.431.828.288.152.66.228 1.116.228h1.117v-2.16zM82.175 85v2.22h-1.104v-3.216h.876c.408-.464.72-.976.936-1.536a8.295 8.295 0 00.48-1.788c.104-.632.164-1.284.18-1.956.024-.672.04-1.352.048-2.04h4.704v7.32h1.044v3.216h-1.104V85h-6.06zm2.556-7.32a130 130 0 01-.084 1.62 12.57 12.57 0 01-.18 1.632 9.973 9.973 0 01-.396 1.584 6.167 6.167 0 01-.744 1.488h3.804V77.68h-2.4zm7.592 6.516c.264 0 .496-.004.696-.012.208-.016.38-.04.516-.072v-1.86a1.345 1.345 0 00-.396-.096 3.698 3.698 0 00-.648-.048c-.168 0-.348.012-.54.036a1.611 1.611 0 00-.516.156c-.152.072-.28.176-.384.312-.104.128-.156.3-.156.516 0 .4.128.68.384.84.256.152.604.228 1.044.228zm-.096-5.592c.448 0 .824.06 1.128.18.312.112.56.276.744.492.192.208.328.46.408.756.08.288.12.608.12.96v3.9l-.408.072a14.805 14.805 0 01-1.284.132 7.72 7.72 0 01-.744.036 4.11 4.11 0 01-.972-.108 2.24 2.24 0 01-.768-.336 1.614 1.614 0 01-.504-.624c-.12-.256-.18-.564-.18-.924 0-.344.068-.64.204-.888.144-.248.336-.448.576-.6.24-.152.52-.264.84-.336a4.58 4.58 0 011.008-.108c.112 0 .228.008.348.024.12.008.232.024.336.048a5.367 5.367 0 01.456.084v-.312c0-.184-.02-.364-.06-.54a1.197 1.197 0 00-.216-.48 1.02 1.02 0 00-.432-.336c-.176-.088-.408-.132-.696-.132-.368 0-.692.028-.972.084-.272.048-.476.1-.612.156l-.132-.924c.144-.064.384-.124.72-.18a5.84 5.84 0 011.092-.096zm4.661.156v1.836c0 .472.12.804.36.996.24.184.568.276.984.276a4.922 4.922 0 001.308-.156V78.76h1.116V85H99.54v-2.424a7.13 7.13 0 01-.612.132l-.408.048a3.906 3.906 0 01-1.368-.084 1.902 1.902 0 01-.732-.36c-.2-.168-.36-.388-.48-.66-.112-.28-.168-.628-.168-1.044V78.76h1.116z" fill="#000"/><path fill-rule="evenodd" clip-rule="evenodd" d="M49.681 35.046v2.047l.552.025.552.025.02 1.772.02 1.773h1.064V37.1h4.186v9.567h1.064l.02-4.762.02-4.762.552-.025.551-.026V33h-8.6v2.046zm7.535.004v.854h-6.47v-1.708h6.47v.854zM36 46.005l-9 10.101 1.314 1.474 1.315 1.473.644-.726c.354-.4.67-.727.703-.727.032 0 .058.074.058.164 0 .301.294.937.612 1.325l.315.383-.284.324a3.533 3.533 0 00-.482.794c-.166.391-.199.59-.199 1.195 0 .606.033.804.199 1.196.11.259.326.616.482.794l.284.324-.315.383c-.478.582-.636 1.053-.643 1.918-.006.653.018.784.236 1.281.134.306.347.666.474.803l.23.248-.273.339c-.15.186-.363.555-.473.819-.169.404-.2.595-.197 1.206.003.625.034.795.223 1.22.97 2.184 3.656 2.195 4.663.018.277-.598.327-1.607.11-2.242l-.152-.448h9.164c5.04 0 9.163.018 9.163.04 0 .023-.06.206-.133.407-.087.24-.132.583-.13 1.005.006 1.136.534 2.067 1.467 2.582.437.241.575.276 1.076.27.759-.007 1.33-.256 1.816-.787 1.034-1.134 1.076-2.965.093-4.101l-.292-.338.291-.319c.428-.469.697-1.203.701-1.912.004-.76-.184-1.368-.602-1.943l-.338-.467.267-.332a3.147 3.147 0 000-3.927l-.267-.332.342-.472a3.45 3.45 0 00.475-.945c.073-.26.153-.473.178-.473.025 0 .335.327.689.727l.644.726 1.276-1.43c.702-.787 1.276-1.47 1.276-1.517 0-.084-17.887-20.202-17.962-20.202-.02 0-4.088 4.546-9.038 10.101zm17.277.811c4.51 5.062 8.2 9.241 8.2 9.287 0 .046-.23.344-.512.663l-.512.58-7.708-8.65-7.707-8.649-7.706 8.649-7.706 8.648-.552-.619-.552-.619 8.24-9.247c4.53-5.085 8.255-9.247 8.276-9.247.021 0 3.729 4.142 8.239 9.204zm-6.793-3.438l1.407 1.58h-5.705l1.406-1.58c.774-.869 1.425-1.58 1.446-1.58.022 0 .673.711 1.447 1.58zm3.92 4.4l1.445 1.622h-13.62l1.444-1.623 1.444-1.623h7.843l1.444 1.623zm4.087 4.588c.87.973 1.583 1.8 1.583 1.836 0 .037-4.966.067-11.036.067-6.07 0-11.035-.029-11.035-.063 0-.035.71-.862 1.578-1.837l1.579-1.773h15.747l1.584 1.77zm-10.848-.517c-.028.03-.05.32-.05.64v.584h1.065v-1.281h-.482c-.265 0-.505.025-.533.057zm1.733.055c-.023.066-.031.347-.018.623l.023.503h1.065v-1.196l-.514-.025c-.389-.019-.525.004-.556.095zm-11.019 3.782c.114.096.312.32.44.497.212.293.233.379.233.94 0 .803-.233 1.242-.823 1.55-.608.318-1.136.239-1.626-.244-.827-.815-.692-2.21.27-2.798.375-.228 1.204-.198 1.506.055zm19.967-.176a.98.98 0 01-.111.236c-.062.105-.168.436-.236.736a2.931 2.931 0 00.16 1.879c.103.248.187.467.187.486 0 .019-.685.034-1.523.034H51.28v1.196h1.522c.838 0 1.523.015 1.523.032 0 .018-.093.258-.207.534a3.087 3.087 0 000 2.285c.114.275.207.516.207.533 0 .018-.685.033-1.523.033H51.28v1.196h1.522c.838 0 1.523.015 1.523.034 0 .019-.084.237-.187.486-.374.906-.3 2.006.188 2.792.125.201.227.384.227.406 0 .022-4.281.04-9.514.04-5.232 0-9.513-.018-9.513-.04 0-.022.098-.213.218-.425.31-.55.417-1.054.374-1.778-.025-.442-.094-.746-.24-1.067l-.203-.448h3.124v-1.196h-3.114l.206-.445c.182-.393.206-.54.206-1.264 0-.722-.024-.87-.206-1.263l-.206-.445h3.113v-1.196h-3.122l.209-.448c.185-.397.21-.542.21-1.26.002-.703-.025-.871-.196-1.26l-.198-.448h9.312c5.121 0 9.312.02 9.312.045zm2.899.153c.962.57 1.036 2.142.137 2.874-.84.683-2.028.22-2.32-.906-.198-.764.044-1.495.634-1.915a1.397 1.397 0 011.549-.053zm-17.056 6.122v5.467h9.666V56.32h-9.666v5.466zm4.321-2.413l.02 1.816h-3.275v-1.78c0-.979.024-1.806.052-1.838.029-.032.757-.048 1.618-.036l1.565.023.02 1.815zm4.28-.021v1.837H45.57v-3.673h3.197v1.836zm-14.63.858c.57.268.927.873.927 1.576 0 1.27-1.162 2.084-2.182 1.53-1.115-.606-1.118-2.438-.006-3.056a1.407 1.407 0 011.26-.05zm22.964.03c.433.225.727.614.843 1.114.318 1.377-.918 2.564-2.062 1.981-.516-.263-.95-.97-.95-1.549 0-.315.18-.798.403-1.083.462-.592 1.164-.776 1.766-.463zm-12.614 3.96l-.02 1.814H41.27l-.02-1.815-.021-1.815h3.279l-.02 1.815zm4.28.02v1.837H45.57v-3.673h3.197v1.837zm-14.485.702c.458.265.735.777.766 1.415.03.626-.141 1.034-.611 1.46-.389.35-1.089.419-1.555.152-.742-.425-1.052-1.374-.715-2.19.386-.935 1.313-1.302 2.115-.837zm23.047.091c1.224.965.649 3.094-.837 3.094-1.338 0-2.022-1.748-1.112-2.839.523-.626 1.342-.733 1.949-.255zm-23.287 4.42c.259.06.796.617.923.956.415 1.114-.343 2.382-1.413 2.365-.654-.01-1.156-.394-1.411-1.078-.342-.918.19-2.061 1.058-2.275.295-.072.414-.068.843.032zm23.278.206c.861.597.891 2.167.055 2.8-.663.5-1.401.43-1.95-.187-1.287-1.443.344-3.69 1.895-2.613zm-20.274 3.764V74H53.03v-1.196H37.047v.598z" fill="#000"/><path fill-rule="evenodd" clip-rule="evenodd" d="M60.168 62.747L59 63.493v10.982l2.333-.008 2.332-.007.009-.872.009-.872h1.493v1.758h4.648v-1.758h1.493l.01.872.008.872 2.333.007 2.332.008V63.492l-1.167-.746L73.665 62l-.318.205c-.175.113-.703.45-1.174.75l-.855.545v2.127h-1.493l-.009-1.076-.008-1.076-1.13-.724c-.62-.399-1.15-.725-1.178-.725-.027 0-.558.327-1.179.726l-1.129.724-.008 1.076-.009 1.075h-1.493v-2.129l-.69-.44c-.378-.24-.906-.578-1.172-.748l-.484-.31-1.168.747zm1.782.731c.322.204.62.398.66.43l.076.06-.009 4.806-.008 4.807-1.336.007-1.337.008v-9.654l.655-.417c.36-.23.668-.418.684-.418.016 0 .293.167.615.371zm6.23.043l.648.413v9.661h-2.656v-9.658l.639-.412c.352-.227.658-.414.68-.416.023 0 .333.184.69.412zm6.187.014l.637.406v9.655l-1.337-.008-1.336-.007v-9.638l.647-.418c.357-.23.671-.413.7-.407.028.005.338.193.689.417zm-9.191 3.41v.44h-1.494v-.88h1.494v.44zm6.142 0v.44h-1.494v-.88h1.494v.44zm-6.15 2.22l-.009.9-.739.008-.738.008v-1.818h1.495l-.01.901zm6.15.007v.909l-.738-.008-.74-.008-.008-.9-.009-.902h1.495v.91zm-6.15 2.219l-.009.432-.739.008-.738.008v-.88h1.495l-.009.432zm6.15.008v.44l-.738-.008-.74-.008-.008-.432-.01-.432h1.496v.44z" fill="#000"/><path fill-rule="evenodd" clip-rule="evenodd" d="M66.168 62.747L65 63.493v10.982l2.332-.008 2.333-.007.009-.872.009-.872h1.493v1.758h4.648v-1.758h1.493l.01.872.008.872 2.333.007 2.332.008V63.492l-1.167-.746L79.665 62l-.318.205c-.175.113-.703.45-1.174.75l-.855.545v2.127h-1.493l-.009-1.076-.008-1.076-1.13-.724c-.62-.399-1.15-.725-1.178-.725-.027 0-.558.327-1.179.726l-1.129.724-.008 1.076-.009 1.075h-1.493v-2.129l-.69-.44c-.378-.24-.906-.578-1.172-.748l-.484-.31-1.168.747zm1.782.731c.322.204.62.398.66.43l.076.06-.009 4.806-.008 4.807-1.337.007-1.336.008v-9.654l.655-.417c.36-.23.668-.418.684-.418.016 0 .293.167.615.371zm6.23.043l.648.413v9.661h-2.656v-9.658l.639-.412c.352-.227.658-.414.68-.416.023 0 .333.184.69.412zm6.187.014l.637.406v9.655l-1.337-.008-1.336-.007v-9.638l.647-.418c.357-.23.671-.413.7-.407.028.005.338.193.689.417zm-9.191 3.41v.44h-1.494v-.88h1.494v.44zm6.142 0v.44h-1.494v-.88h1.494v.44zm-6.15 2.22l-.009.9-.739.008-.738.008v-1.818h1.495l-.01.901zm6.15.007v.909l-.738-.008-.74-.008-.008-.9-.009-.902h1.495v.91zm-6.15 2.219l-.009.432-.739.008-.738.008v-.88h1.495l-.009.432zm6.15.008v.44l-.738-.008-.74-.008-.008-.432-.01-.432h1.496v.44z" fill="#000"/><path fill-rule="evenodd" clip-rule="evenodd" d="M72.168 62.747L71 63.493v10.982l2.332-.008 2.333-.007.009-.872.009-.872h1.493v1.758h4.648v-1.758h1.493l.01.872.008.872 2.333.007 2.332.008V63.492l-1.167-.746L85.665 62l-.318.205c-.175.113-.703.45-1.174.75l-.855.545v2.127h-1.493l-.009-1.076-.008-1.076-1.13-.724c-.62-.399-1.15-.725-1.178-.725-.027 0-.558.327-1.179.726l-1.129.724-.008 1.076-.009 1.075h-1.493v-2.129l-.69-.44c-.378-.24-.906-.578-1.172-.748l-.484-.31-1.168.747zm1.782.731c.322.204.62.398.66.43l.076.06-.009 4.806-.008 4.807-1.337.007-1.336.008v-9.654l.655-.417c.36-.23.668-.418.684-.418.016 0 .293.167.615.371zm6.23.043l.648.413v9.661h-2.656v-9.658l.639-.412c.352-.227.658-.414.68-.416.023 0 .333.184.69.412zm6.187.014l.637.406v9.655l-1.337-.008-1.336-.007v-9.638l.647-.418c.357-.23.671-.413.7-.407.028.005.338.193.689.417zm-9.191 3.41v.44h-1.494v-.88h1.494v.44zm6.142 0v.44h-1.494v-.88h1.494v.44zm-6.15 2.22l-.009.9-.739.008-.738.008v-1.818h1.495l-.01.901zm6.15.007v.909l-.738-.008-.74-.008-.008-.9-.009-.902h1.495v.91zm-6.15 2.219l-.009.432-.739.008-.738.008v-.88h1.495l-.009.432zm6.15.008v.44l-.738-.008-.74-.008-.008-.432-.01-.432h1.496v.44z" fill="#000"/></svg>