<svg width="38" height="38" fill="none" xmlns="http://www.w3.org/2000/svg"><g clip-path="url(#clip0_3_180)" fill="#fff"><path d="M34.503 4.77H3.497A3.501 3.501 0 000 8.27a3.5 3.5 0 003.497 3.496h31.006A3.5 3.5 0 0038 8.27c0-1.93-1.569-3.5-3.497-3.5zm0 10.732H3.497A3.501 3.501 0 000 19.002a3.5 3.5 0 003.497 3.496h31.006A3.5 3.5 0 0038 19.001a3.502 3.502 0 00-3.497-3.499zm0 10.732H3.497A3.502 3.502 0 000 29.734a3.501 3.501 0 003.497 3.496h31.006A3.501 3.501 0 0038 29.733c0-1.93-1.569-3.5-3.497-3.5z"/></g><defs><clipPath id="clip0_3_180"><path fill="#fff" d="M0 0h38v38H0z"/></clipPath></defs></svg>