<svg width="39" height="40" fill="none" xmlns="http://www.w3.org/2000/svg"><g filter="url(#filter0_d_103_593)"><ellipse cx="19.688" cy="18.906" rx="14.756" ry="15.906" fill="#fff"/></g><path d="M11.831 19.203l3.392 1.364 1.323 4.587c.057.31.402.372.632.186l1.898-1.674c.172-.186.46-.186.69 0l3.392 2.665c.23.186.575.062.633-.248l2.53-13.016c.057-.31-.23-.62-.518-.496l-13.972 5.827c-.345.124-.345.681 0 .805zm4.542.682l6.67-4.4c.115-.062.23.123.115.186l-5.462 5.516c-.173.186-.345.434-.345.744l-.173 1.487c0 .186-.287.248-.345 0l-.69-2.727c-.172-.31-.057-.682.23-.806z" fill="#449CE0"/><defs><filter id="filter0_d_103_593" x=".933" y="0" width="37.511" height="39.812" filterUnits="userSpaceOnUse" color-interpolation-filters="sRGB"><feFlood flood-opacity="0" result="BackgroundImageFix"/><feColorMatrix in="SourceAlpha" values="0 0 0 0 0 0 0 0 0 0 0 0 0 0 0 0 0 0 127 0" result="hardAlpha"/><feOffset dy="1"/><feGaussianBlur stdDeviation="2"/><feComposite in2="hardAlpha" operator="out"/><feColorMatrix values="0 0 0 0 0 0 0 0 0 0 0 0 0 0 0 0 0 0 0.25 0"/><feBlend in2="BackgroundImageFix" result="effect1_dropShadow_103_593"/><feBlend in="SourceGraphic" in2="effect1_dropShadow_103_593" result="shape"/></filter></defs></svg>