<svg width="38" height="40" fill="none" xmlns="http://www.w3.org/2000/svg"><g filter="url(#filter0_d_103_590)"><ellipse cx="19.088" cy="18.906" rx="14.755" ry="15.906" fill="#fff"/><path d="M24.937 12.593c-1.458-1.565-3.401-2.435-5.452-2.435-4.265 0-7.72 3.711-7.72 8.292 0 1.45.378 2.9 1.026 4.118l-1.08 4.291 4.103-1.16c1.133.638 2.375.986 3.67.986 4.265 0 7.72-3.711 7.72-8.293-.054-2.145-.81-4.233-2.267-5.799zm-1.728 8.815c-.162.464-.917.928-1.295.986a2.813 2.813 0 01-1.188-.058c-.27-.116-.648-.232-1.08-.464-1.943-.87-3.184-2.958-3.293-3.132-.107-.116-.81-1.101-.81-2.145s.487-1.508.649-1.74c.162-.232.378-.232.54-.232h.377c.108 0 .27-.058.432.348.162.406.54 1.45.594 1.508a.394.394 0 010 .348 1.224 1.224 0 01-.216.348c-.108.116-.216.29-.27.348-.108.116-.216.232-.108.405.108.232.486.87 1.08 1.45.756.696 1.35.928 1.565 1.044.216.116.324.058.432-.058.108-.116.486-.58.594-.812.108-.232.27-.174.432-.116.162.058 1.134.58 1.296.696.215.116.323.174.377.232.054.174.054.58-.108 1.044z" fill="#48C95F"/></g><defs><filter id="filter0_d_103_590" x=".333" y="0" width="37.511" height="39.812" filterUnits="userSpaceOnUse" color-interpolation-filters="sRGB"><feFlood flood-opacity="0" result="BackgroundImageFix"/><feColorMatrix in="SourceAlpha" values="0 0 0 0 0 0 0 0 0 0 0 0 0 0 0 0 0 0 127 0" result="hardAlpha"/><feOffset dy="1"/><feGaussianBlur stdDeviation="2"/><feComposite in2="hardAlpha" operator="out"/><feColorMatrix values="0 0 0 0 0 0 0 0 0 0 0 0 0 0 0 0 0 0 0.25 0"/><feBlend in2="BackgroundImageFix" result="effect1_dropShadow_103_590"/><feBlend in="SourceGraphic" in2="effect1_dropShadow_103_590" result="shape"/></filter></defs></svg>