<svg width="67" height="67" fill="none" xmlns="http://www.w3.org/2000/svg"><path d="M42.014 13.959a13.958 13.958 0 0111.027 11.027M42.014 2.792a25.125 25.125 0 0122.194 22.166m-2.791 22.277v8.375a5.583 5.583 0 01-6.086 5.584 55.247 55.247 0 01-24.092-8.57 54.435 54.435 0 01-16.75-16.75 55.246 55.246 0 01-8.57-24.205 5.583 5.583 0 015.555-6.085h8.375a5.583 5.583 0 015.583 4.801 35.847 35.847 0 001.954 7.845 5.583 5.583 0 01-1.256 5.89l-3.546 3.546a44.667 44.667 0 0016.75 16.75l3.546-3.546a5.584 5.584 0 015.89-1.256 35.89 35.89 0 007.845 1.954 5.584 5.584 0 014.801 5.667z" stroke="#000" stroke-width="3" stroke-linecap="round" stroke-linejoin="round"/></svg>