<svg width="61" height="61" fill="none" xmlns="http://www.w3.org/2000/svg"><path fill-rule="evenodd" clip-rule="evenodd" d="M29.001.156a7.425 7.425 0 00-3.183 1.624c-.99.877-17.984 16.698-18.621 17.335-.812.812-.761.979.77 2.547.709.725 1.27 1.36 1.247 1.41-.023.05-.41.435-.86.854l-.818.762-.822-.87c-1.155-1.224-2.089-1.57-3.107-1.148-.535.22-3.246 2.786-3.45 3.262-.228.538-.205 1.456.05 1.903.305.537 7.143 7.56 7.672 7.88.522.316 1.476.361 1.996.095.46-.236 2.965-2.54 3.25-2.992.32-.503.42-1.25.242-1.782-.082-.243-.551-.879-1.043-1.414l-.894-.972.877-.798.877-.799 1.338 1.367c1.069 1.092 1.403 1.366 1.669 1.364.24 0 .591-.233 1.267-.838l.936-.837.8.86c.439.471.798.9.798.95 0 .052-3.638 4.48-8.084 9.84C.072 54.026 1.21 52.597 1.207 53.188c-.003.493.036.542 1.61 2.035 3.707 3.513 5.193 4.844 5.492 4.918.46.113.86-.02 1.376-.457.375-.319 13.222-11.49 19.53-16.985.928-.808 1.727-1.468 1.777-1.468.05 0 4.378 4.43 9.62 9.843 5.433 5.613 9.648 9.874 9.806 9.913.185.045.428-.035.73-.24.249-.17 2.558-2.284 5.133-4.7 4.23-3.968 4.684-4.43 4.715-4.803.038-.442-.04-.527-7.878-8.582-6.976-7.169-12.519-12.94-12.491-13.007.017-.042 4.19-4.328 9.271-9.524 5.082-5.197 9.376-9.673 9.543-9.946.393-.643.433-2.033.08-2.731-.357-.704-5.917-5.975-6.705-6.357-.69-.334-2.01-.318-2.69.032-.335.174-3.525 3.355-9.655 9.63l-9.153 9.37-.416-.391a21.575 21.575 0 01-1.038-1.092l-.622-.7.937-.876c.816-.762.937-.928.937-1.289 0-.368-.125-.526-1.155-1.465-.635-.578-1.155-1.14-1.155-1.249 0-.198 1.286-1.392 2.835-2.632 1.09-.872 1.995-1.289 3.912-1.8a33.41 33.41 0 003.039-.996c1.58-.624 1.886-.9 1.656-1.493-.111-.286-3.892-3.697-5.046-4.552-1.82-1.35-4.15-1.89-6.2-1.439zm2.545 1.612c1.525.277 2.266.742 4.88 3.064l1.482 1.316-.82.298c-.45.164-1.473.472-2.271.685-1.889.503-2.697.868-3.884 1.754-1.366 1.02-3.231 2.714-3.555 3.23-.605.964-.298 1.87 1.044 3.085l.688.622-.547.504c-2.55 2.345-9.6 8.908-10.804 10.055l-1.503 1.434-1.293-1.328c-.71-.731-1.413-1.364-1.56-1.408-.409-.12-.725.104-2.454 1.74-1.244 1.176-1.594 1.576-1.594 1.818 0 .229.32.65 1.212 1.593.666.705 1.213 1.37 1.215 1.476.006.301-2.498 2.609-2.831 2.609-.206 0-1.052-.796-3.25-3.062-3.91-4.028-4.138-4.285-4.03-4.55.148-.369 2.53-2.525 2.789-2.525.149 0 .701.478 1.446 1.252 1.662 1.728 1.444 1.767 4.087-.735 1.723-1.63 1.722-1.543.01-3.344l-1.296-1.364.415-.392a6488.904 6488.904 0 0117.7-16.436c.89-.798 1.51-1.129 2.518-1.344.94-.2 1.315-.208 2.206-.047zm20.568.913c.616.331 5.858 5.375 5.947 5.722.162.634-.105 1.061-1.697 2.71l-1.559 1.613-3.578-3.366C49.26 7.508 47.65 5.948 47.65 5.89c0-.159 3.07-3.194 3.343-3.305.386-.156.704-.129 1.122.095zm-1.79 8.145c1.772 1.666 3.221 3.06 3.221 3.1 0 .04-2.345 2.472-5.211 5.403-4.512 4.615-5.238 5.31-5.404 5.18-.343-.271-6.965-6.515-6.99-6.59-.012-.04 2.329-2.485 5.202-5.432l5.224-5.359.368.336c.203.184 1.818 1.697 3.59 3.362zM31.586 22.832c1.346 1.392 2.443 2.573 2.438 2.624-.006.051-1.88 1.826-4.164 3.944l-4.154 3.85-.912-.929c-2.978-3.034-5.104-5.27-5.095-5.359.006-.055 1.878-1.833 4.16-3.95l4.147-3.85.567.57c.311.314 1.667 1.709 3.013 3.1zm6.74-.294l3.581 3.369-1.232 1.252c-.677.689-1.259 1.252-1.292 1.252-.081 0-6.736-6.853-6.788-6.99-.042-.109 1.919-2.24 2.068-2.247.046-.003 1.695 1.511 3.664 3.364zm5.13 12.568c4.479 4.631 8.144 8.483 8.144 8.558 0 .075-1.86 1.872-4.132 3.994l-4.132 3.858-.487-.535c-.269-.294-3.942-4.097-8.164-8.451-4.221-4.355-7.695-7.957-7.72-8.005-.04-.08 8.145-7.821 8.284-7.835.034-.003 3.726 3.784 8.206 8.416zm-17.91.414c2.294 2.368 4.172 4.348 4.172 4.399 0 .123-20.953 18.366-21.094 18.366-.06 0-1.341-1.16-2.848-2.578-1.748-1.647-2.706-2.631-2.65-2.722.241-.388 18.07-21.771 18.153-21.771.052 0 1.973 1.938 4.267 4.306zm6.622 1.16c-.11.12-.201.4-.201.624 0 .377.41.808 5.685 5.983 6.163 6.046 6.008 5.924 6.66 5.284.164-.16.298-.415.298-.565 0-.2-1.52-1.764-5.746-5.908-5.095-4.999-5.788-5.637-6.12-5.637-.209 0-.464.097-.576.218zm-9.51 4.108c-.139.08-3.49 3.033-7.446 6.562-4.628 4.128-7.22 6.52-7.268 6.709-.16.623.595 1.188 1.178.882.39-.205 14.544-12.828 14.696-13.107.195-.357.15-.589-.173-.906-.328-.322-.603-.36-.987-.14zm33.3 7.232c1.649 1.7 2.992 3.136 2.987 3.19-.012.107-8.139 7.667-8.285 7.707-.127.035-6.067-6.126-6.025-6.248.044-.125 8.153-7.722 8.254-7.733.04-.004 1.422 1.384 3.07 3.084z" fill="#000"/></svg>