<svg width="71" height="61" fill="none" xmlns="http://www.w3.org/2000/svg"><path fill-rule="evenodd" clip-rule="evenodd" d="M17.765.182C9.868 1.714 3.428 8.264.978 17.255.05 20.665 0 21.33 0 30.472c0 7.32.028 8.393.26 9.872 1.666 10.655 8.663 18.782 17.574 20.413 1.118.204 5.206.241 26.814.242L70.143 61l.39-.4.389-.4.039-6.726.039-6.725-.407-.544c-.337-.452-.506-.544-.99-.544-.483 0-.653.092-.986.538-.348.466-.402.67-.402 1.53v.993H51.838v-4.977h4.879l.406-.485.405-.485V28.621l-.405-.485-.406-.485h-4.836l-.084-2.696c-.128-4.106-.64-6.948-1.83-10.133-2.383-6.387-7.066-11.49-12.494-13.612C34.5.047 34.61.059 26.37.01c-5.633-.033-7.77.01-8.605.172zm16.04 3.343c3.84.77 7.244 2.93 10.028 6.36 2.02 2.49 3.412 5.214 4.27 8.356.899 3.286.864 2.456.92 21.812l.051 17.629H34.183c-12.741-.001-15.082-.038-16.21-.257-7.914-1.533-14.118-9.27-15.124-18.862-.185-1.77-.185-14.412 0-16.182.765-7.29 4.48-13.563 10.001-16.886 1.32-.795 3.57-1.68 4.998-1.965 1.8-.361 14.165-.365 15.958-.005zm-11.03 6.308c-2.287.494-4.826 1.763-6.884 3.44-.572.467-1.635 1.56-2.362 2.429-4.722 5.643-6.335 13.832-4.217 21.407 1.755 6.275 5.838 11.15 11.106 13.26 4.316 1.729 9.336 1.254 13.422-1.268 7.296-4.505 10.99-14.433 8.916-23.965-1.717-7.886-7.313-14.024-13.96-15.313-1.621-.314-4.541-.309-6.021.01zm6.787 3.545c1.425.453 3.91 1.9 5.066 2.95 1.313 1.193 3.022 3.438 3.802 4.994.766 1.53 1.502 3.742 1.84 5.535.312 1.649.312 5.581 0 7.23-.597 3.166-1.836 5.998-3.623 8.285-1.453 1.86-2.592 2.871-4.448 3.953-2.354 1.37-3.389 1.64-6.315 1.643-2.209.003-2.548-.037-3.747-.437-5.647-1.887-9.767-7.267-10.76-14.053-1.306-8.911 3.405-17.732 10.69-20.016 1.805-.565 1.74-.558 4.164-.494 1.705.044 2.479.14 3.331.41zm-5.277 3.974c-1.701.326-3.615 1.27-4.95 2.441-1.881 1.651-3.543 4.572-4.16 7.315-.409 1.815-.407 4.918.003 6.74.608 2.702 2.298 5.671 4.157 7.303 6.006 5.27 14.46 2.043 17.01-6.493.417-1.399.432-1.542.432-4.186s-.015-2.787-.432-4.186c-1.288-4.312-4.146-7.522-7.665-8.608-1.194-.368-3.346-.528-4.395-.326zm3.195 3.414c2.844.711 5.156 3.124 6.212 6.482.264.84.31 1.312.31 3.224 0 2.48-.174 3.305-1.073 5.124-1.501 3.038-4.702 5.04-7.617 4.761-3.407-.324-6.104-2.825-7.254-6.725-.363-1.231-.418-1.647-.418-3.16 0-1.513.055-1.929.418-3.16.765-2.594 2.187-4.553 4.149-5.711 1.743-1.03 3.428-1.297 5.273-.835zm27.273 14.932v4.729h-2.915V30.97h2.915v4.728zm3.886 17.247c0 1.107.21 1.7.714 2.012.58.358 1.039.286 1.531-.24.4-.427.452-.589.504-1.576l.059-1.1h6.768v5.64H51.838v-5.64h6.8v.904z" fill="#000"/></svg>